<?xml version="1.0" encoding="UTF-8"?>
<svg id="Calque_2" data-name="Calque 2" xmlns="http://www.w3.org/2000/svg" viewBox="0 0 187.42 145.36">
  <defs>
    <style>
      .cls-1 {
        fill: #fff;
        stroke-width: 0px;
      }
    </style>
  </defs>
  <g id="Calque_1-2" data-name="Calque 1">
    <g>
      <g>
        <path class="cls-1" d="M185.29,58.98c-36.84-16.52-81.83-11.67-113.73,13.37-15.82,12.41-28.29,33.38-19.11,53.56,3.82,8.38,11.96,14.67,21.1,16.06,9.2,1.4,17.8-2.28,23.21-9.83,5.76-8.03,6.8-19.08,4.17-28.43-3.12-11.07-10.37-20.43-17.49-29.27,12.52-8.2,26.93-13.42,41.73-15.52,18.74-2.65,38.42-.19,55.72,7.57,2.16.97,4.66.61,5.95-1.56,1.11-1.85.58-4.99-1.56-5.95ZM91.77,123.32c-2.6,6.31-8.15,10.61-15.12,10.28-7.28-.35-13.91-5.45-16.68-12.09-6.71-16.07,4.28-32.09,16.46-41.99,9.65,11.95,22,27.62,15.34,43.79Z"/>
        <path class="cls-1" d="M63.92,64.17c1.49,1.84,4.6,1.52,6.15,0,1.83-1.79,1.47-4.34,0-6.15-10.35-12.8-20.7-25.6-31.05-38.4-1.35-1.68-4.82-1.72-6.15,0C22.32,33.23,11.77,46.83,1.22,60.43c-1.45,1.87-1.79,4.32,0,6.15,1.48,1.52,4.72,1.85,6.15,0,9.55-12.31,19.09-24.62,28.64-36.92,9.3,11.5,18.61,23.01,27.91,34.51Z"/>
      </g>
      <path class="cls-1" d="M99.73,81.18c12.24,12.1,16.02,30.78,9.87,46.78-2.01,5.23,6.4,7.5,8.39,2.31,7.22-18.78,2.15-41.15-12.11-55.25-3.99-3.94-10.15,2.21-6.15,6.15h0Z"/>
      <path class="cls-1" d="M55.36,22.68l11.31,14.04c3.39,4.21,6.57,9.31,10.74,12.78,4.74,3.94,9.69,2.51,15.07.96,5.87-1.69,11.75-3.39,17.62-5.08,5.37-1.55,3.09-9.95-2.31-8.39s-10.28,2.96-15.42,4.45c-2.28.66-4.92,1.87-7.3,2.06-1.84.15-2.82-1.31-3.93-2.61-6.74-7.94-13.09-16.25-19.62-24.36-1.49-1.84-4.6-1.52-6.15,0-1.83,1.79-1.47,4.33,0,6.15h0Z"/>
      <path class="cls-1" d="M65.62,110.62c-2.84,8.16,3.34,16.18,11.7,16.49,5.6.21,5.59-8.49,0-8.7-3.01-.11-4.21-2.86-3.31-5.47.77-2.22-.88-4.76-3.04-5.35-2.4-.66-4.58.81-5.35,3.04h0Z"/>
      <path class="cls-1" d="M20.55,71.14l6.83-7.26c1.61-1.71,1.7-4.46,0-6.15s-4.54-1.72-6.15,0l-6.83,7.26c-1.61,1.71-1.7,4.46,0,6.15s4.54,1.72,6.15,0h0Z"/>
      <path class="cls-1" d="M42.1,83.51c-5.7,9.01-8.39,19.71-7.51,30.34.46,5.54,9.17,5.59,8.7,0-.77-9.24,1.36-18.11,6.32-25.95,3-4.75-4.52-9.12-7.52-4.39h0Z"/>
      <path class="cls-1" d="M162.25,46.6c5.98,1.34,11.96,2.68,17.94,4.02,5.46,1.22,7.79-7.17,2.31-8.39-5.98-1.34-11.96-2.68-17.94-4.02-5.46-1.22-7.79,7.17-2.31,8.39h0Z"/>
      <path class="cls-1" d="M148.08,44.33c5.6,0,5.61-8.7,0-8.7s-5.61,8.7,0,8.7h0Z"/>
      <path class="cls-1" d="M47.69,8.7c5.6,0,5.61-8.7,0-8.7s-5.61,8.7,0,8.7h0Z"/>
      <path class="cls-1" d="M105.33,145.36c5.6,0,5.61-8.7,0-8.7s-5.61,8.7,0,8.7h0Z"/>
      <path class="cls-1" d="M74.89,103.91c5.6,0,5.61-8.7,0-8.7s-5.61,8.7,0,8.7h0Z"/>
      <path class="cls-1" d="M1.24,78.19v.65c-.02.6.1,1.16.37,1.68.18.54.48,1.01.9,1.4.39.42.86.72,1.4.9.52.27,1.08.4,1.68.37l1.16-.16c.74-.21,1.38-.58,1.92-1.12l.68-.88c.39-.68.59-1.41.59-2.2v-.65c.02-.6-.1-1.16-.37-1.68-.18-.54-.48-1.01-.9-1.4-.39-.42-.86-.72-1.4-.9-.52-.27-1.08-.4-1.68-.37l-1.16.16c-.74.21-1.38.58-1.92,1.12l-.68.88c-.39.68-.59,1.41-.59,2.2h0Z"/>
    </g>
  </g>
</svg>